<?xml version="1.0" encoding="utf-8"?>
<!-- Generator: Adobe Illustrator 16.0.4, SVG Export Plug-In . SVG Version: 6.00 Build 0)  -->
<!DOCTYPE svg PUBLIC "-//W3C//DTD SVG 1.1//EN" "http://www.w3.org/Graphics/SVG/1.1/DTD/svg11.dtd">
<svg version="1.1" id="Calque_1" xmlns="http://www.w3.org/2000/svg" xmlns:xlink="http://www.w3.org/1999/xlink" x="0px" y="0px"
	 width="187.393px" height="66.647px" viewBox="0 0 187.393 66.647" enable-background="new 0 0 187.393 66.647"
	 xml:space="preserve">
<g>
	<path d="M86.289,65.583H35.213c-4.94,0-9.56-0.689-13.86-2.07c-4.299-1.381-8.033-3.426-11.199-6.125
		c-3.167-2.701-5.65-6.059-7.451-10.082C0.899,43.292,0,38.612,0,33.275C0,21.767,3.542,13.344,10.632,8.005
		C17.722,2.671,28.384,0,42.619,0c14.179,0,24.826,2.671,31.944,8.005c7.119,5.339,10.677,13.762,10.677,25.271
		c0,4.18-0.842,7.78-2.525,10.799H63.364c1.396-1.154,2.397-2.633,3.007-4.436c0.609-1.797,0.915-3.92,0.915-6.364
		c0-3.472-0.435-6.284-1.308-8.44c-0.872-2.151-2.28-3.822-4.225-5.014c-1.949-1.188-4.49-1.992-7.628-2.412
		c-3.138-0.417-6.974-0.626-11.507-0.626c-4.531,0-8.364,0.209-11.502,0.626c-3.139,0.42-5.682,1.224-7.629,2.412
		c-1.946,1.191-3.354,2.862-4.227,5.014c-0.87,2.156-1.308,4.969-1.308,8.44c0,3.024,0.392,5.53,1.178,7.522
		c0.784,1.994,1.917,3.604,3.398,4.824s3.297,2.09,5.448,2.604c2.147,0.516,4.56,0.773,7.234,0.773h3.747
		c1.163,0,2.367,0.014,3.616,0.045c1.251,0.035,2.396,0.113,3.443,0.242c-0.872-0.643-1.889-1.412-3.05-2.314
		c-1.165-0.9-2.237-1.797-3.226-2.699l-7.408-6.369h23.532L86.289,65.583z"/>
	<path d="M89.341,57.387c0-3.02,0.943-5.35,2.832-6.99c1.887-1.643,4.195-2.463,6.925-2.463c2.791,0,5.131,0.82,7.018,2.463
		c1.891,1.641,2.834,3.971,2.834,6.99c0,2.959-0.943,5.24-2.834,6.85c-1.887,1.605-4.227,2.41-7.018,2.41
		c-2.73,0-5.039-0.805-6.925-2.41C90.284,62.627,89.341,60.346,89.341,57.387z"/>
	<path d="M112.524,1.062l26.232,42.822l27.369-42.822h21.268l-37.305,58.349c-1.275,1.867-2.846,3.539-4.705,5.018
		c-1.861,1.479-4.184,2.219-6.973,2.219c-2.73,0-5.012-0.693-6.842-2.076c-1.834-1.381-3.387-3.1-4.662-5.16L90.386,1.062H112.524z"
		/>
</g>
</svg>
